HIERARCHY
ROOT Hips
{
  OFFSET 40.9192 92.6879 18.85
  CHANNELS 6 Xposition Yposition Zposition Zrotation Xrotation Yrotation
  JOINT LeftUpLeg
  {
    OFFSET 8.64259 1.95398 -2.38835
    CHANNELS 3 Zrotation Xrotation Yrotation
    JOINT LeftLeg
    {
      OFFSET 43.7702 0 0
      CHANNELS 3 Zrotation Xrotation Yrotation
      JOINT LeftFoot
      {
        OFFSET 40.6238 0 0
        CHANNELS 3 Zrotation Xrotation Yrotation
        JOINT LeftToeBase
        {
          OFFSET 12.7242 0 0
          CHANNELS 3 Zrotation Xrotation Yrotation
          End Site
          {
            OFFSET 0 0 0
          }
        }
      }
    }
  }
  JOINT RightUpLeg
  {
    OFFSET -8.2249 1.95398 -2.59336
    CHANNELS 3 Zrotation Xrotation Yrotation
    JOINT RightLeg
    {
      OFFSET 43.5653 0 0
      CHANNELS 3 Zrotation Xrotation Yrotation
      JOINT RightFoot
      {
        OFFSET 40.6238 0 0
        CHANNELS 3 Zrotation Xrotation Yrotation
        JOINT RightToeBase
        {
          OFFSET 12.7242 0 0
          CHANNELS 3 Zrotation Xrotation Yrotation
          End Site
          {
            OFFSET 0 0 0
          }
        }
      }
    }
  }
  JOINT Spine
  {
    OFFSET 0.165834 0.87714 6.61349
    CHANNELS 3 Zrotation Xrotation Yrotation
    JOINT Spine1
    {
      OFFSET 7.38963 1.71661e-005 0
      CHANNELS 3 Zrotation Xrotation Yrotation
      JOINT Spine2
      {
        OFFSET 11.9445 1.14441e-005 0
        CHANNELS 3 Zrotation Xrotation Yrotation
        JOINT Spine3
        {
          OFFSET 14.7254 4.19617e-005 0
          CHANNELS 3 Zrotation Xrotation Yrotation
          JOINT Spine4
          {
            OFFSET 10.9679 0 0
            CHANNELS 3 Zrotation Xrotation Yrotation
            JOINT RightShoulder
            {
              OFFSET 2.46616 -1.6653 3.69651
              CHANNELS 3 Zrotation Xrotation Yrotation
              JOINT RightArm
              {
                OFFSET 13.0012 0 0
                CHANNELS 3 Zrotation Xrotation Yrotation
                JOINT RightForeArm
                {
                  OFFSET 28.7848 1.52588e-005 0
                  CHANNELS 3 Zrotation Xrotation Yrotation
                  JOINT RightHand
                  {
                    OFFSET 26.5688 1.52588e-005 0
                    CHANNELS 3 Zrotation Xrotation Yrotation
                    End Site
                    {
                      OFFSET 0 0 0
                    }
                  }
                }
              }
            }
            JOINT LeftShoulder
            {
              OFFSET 2.38034 -1.29275 -3.7523
              CHANNELS 3 Zrotation Xrotation Yrotation
              JOINT LeftArm
              {
                OFFSET 16.3182 6.10351e-005 0
                CHANNELS 3 Zrotation Xrotation Yrotation
                JOINT LeftForeArm
                {
                  OFFSET 27.0901 0 0
                  CHANNELS 3 Zrotation Xrotation Yrotation
                  JOINT LeftHand
                  {
                    OFFSET 24.5451 1.52588e-005 0
                    CHANNELS 3 Zrotation Xrotation Yrotation
                    End Site
                    {
                      OFFSET 0 0 0
                    }
                  }
                }
              }
            }
            JOINT Neck
            {
              OFFSET 5.0226 -0.0266342 0
              CHANNELS 3 Zrotation Xrotation Yrotation
              JOINT Head
              {
                OFFSET 6.69363 2.86102e-005 0
                CHANNELS 3 Zrotation Xrotation Yrotation
                End Site
                {
                  OFFSET 0 0 0
                }
              }
            }
          }
        }
      }
    }
  }
}
MOTION
Frames:	6
Frame Time:	0.0416667
26.9882 95.2555 -308.304 17.866 -45.6459 28.9618 -176.869 40.2371 90.9268 -10.767 19.3882 -0.420954 73.8144 9.05194 -4.54019 26.4408 -2.53299 4.8729 166.402 50.349 97.4091 -104.564 80.096 75.6661 33.8153 17.278 22.4341 2.63598 -38.2364 92.8025 -4.59189 0.601018 -93.2725 25.6196 -10.7122 -3.66248 13.9895 -10.8628 -3.18264 -8.78018 -9.11517 -6.73096 11.2324 -9.11516 -6.73097 83.9505 -33.5293 -116.688 60.3226 26.5286 -20.0931 -47.2324 -12.8334 -0.0206104 -29.3457 19.4787 -65.1529 -55.6135 -47.562 131.196 -39.4755 20.3322 17.0397 7.01079 22.5369 -36.8756 25.5553 2.99738 8.00259 -9.82502 19.7056 13.2847 -9.03466 19.3492 1.9012 
26.9684 95.7106 -309.197 10.9602 -55.1659 24.7665 -174.533 36.0707 95.2216 -15.9796 16.0175 -0.696382 76.656 9.73476 -3.9686 23.9612 -4.38076 3.16602 165.892 40.1073 99.9488 -59.9503 69.0489 37.9608 38.5774 14.3001 18.485 7.12972 -29.541 85.4524 -3.72839 1.58916 -93.2913 23.5974 -9.07912 -4.42191 11.9523 -9.26474 -4.01566 -10.7044 -7.33195 -6.95153 9.30829 -7.33196 -6.95154 84.4184 -33.8565 -115.68 58.5992 25.0729 -19.5535 -45.8971 -17.8878 -0.0211163 -29.2196 19.0644 -64.3152 -58.5603 -49.2772 126.232 -37.3625 20.6084 16.9321 9.91353 24.0738 -39.09 11.5951 1.2907 6.95313 -5.47979 17.9917 12.0251 -13.8836 16.9924 3.20933 
26.7171 95.8793 -310.721 23.1196 -57.8113 32.4214 -175.007 30.6872 91.4791 -13.8047 17.6136 -0.712737 75.0669 9.72075 -4.38222 23.8538 -4.22622 1.78651 167.491 37.7304 94.7375 -43.9145 53.9661 18.3215 42.4512 14.6724 17.4137 23.193 -11.473 66.8845 -3.98959 1.96782 -92.5869 22.9013 -9.17425 -2.96164 11.2604 -9.29557 -2.55192 -11.4518 -7.85918 -5.59422 8.56086 -7.85918 -5.59422 84.3751 -34.7306 -115.344 54.9634 23.175 -17.3503 -43.1663 -23.0247 -0.021835 -27.6029 17.8746 -64.1198 -62.5214 -51.926 119.673 -34.8128 18.2686 16.6092 10.1969 22.152 -39.1264 11.2249 1.42316 8.30754 -7.96739 16.2051 13.7459 -8.45099 15.6281 0.276641 
26.6631 96.3736 -312.285 18.6857 -67.5255 28.8558 -172.812 24.231 94.0638 -15.3716 12.5355 -0.996241 77.4234 10.2897 -5.78111 22.3838 -5.37237 1.44966 169.329 26.6753 95.7898 -28.5222 28.3414 10.9922 49.6027 9.13321 9.50577 37.4123 0.998285 38.1662 -3.13519 2.98211 -92.415 20.8276 -7.42524 -3.24572 9.17457 -7.5608 -2.91439 -13.4515 -6.10697 -5.33121 6.56111 -6.10696 -5.33122 84.3154 -35.6122 -115.044 50.8912 18.6437 -14.119 -37.544 -26.1234 -0.0210197 -23.4482 14.7786 -63.0347 -67.7946 -54.1828 111.59 -33.2494 16.3629 16.0984 9.05829 19.07 -38.4212 11.1543 1.5126 9.07588 -6.68025 13.5549 14.2714 -7.87652 12.8057 -0.76304 
26.7343 96.5538 -313.802 27.2014 -72.5174 35.9005 -172.661 18.7003 93.2763 -14.7508 9.29678 -0.600051 79.1996 11.0735 -9.44752 19.9777 -7.52038 2.15359 170.292 20.409 94.0108 -24.2569 11.5033 8.01202 57.1468 4.92101 3.43568 40.2663 1.16996 16.2832 -2.89885 3.76782 -92.0119 19.2856 -6.74838 -2.70585 7.63 -6.86088 -2.40511 -14.9876 -5.62326 -4.61256 5.02502 -5.62326 -4.61256 84.2368 -36.2921 -114.873 47.4253 13.1646 -10.4122 -28.689 -28.6429 -0.0185299 -21.4212 12.3246 -58.8803 -73.5539 -56.545 103.147 -31.4646 15.462 14.9562 8.16882 17.081 -37.9808 12.116 1.55228 8.50028 -2.21012 11.1153 14.3672 -9.93343 9.7959 -1.36259 
26.9104 96.6244 -314.772 33.2679 -75.6068 41.3607 -172.331 14.8936 93.0872 -13.5687 6.10637 -0.463291 81.1878 12.1879 -12.6911 18.4324 -8.5028 0.923805 171.316 16.43 93.4833 -22.137 3.5575 6.1436 61.3221 1.19802 0.813507 39.5415 0.733591 6.10003 -2.56353 4.43925 -91.7237 17.9524 -5.93658 -2.37623 6.29333 -6.03537 -2.1119 -16.3056 -4.94804 -4.05304 3.70709 -4.94804 -4.05304 84.6444 -38.5998 -113.16 44.311 10.2468 -7.10342 -24.5281 -34.7993 -0.016224 -16.7975 7.50245 -48.5329 -79.4497 -57.3905 94.8656 -30.5176 15.2586 12.9542 7.52177 16.0064 -37.7227 13.7427 1.58248 7.3681 0.69396 8.99174 12.7421 -8.72648 7.49599 -2.11734 
